<svg width="239" height="140" viewBox="0 0 239 140" fill="none" xmlns="http://www.w3.org/2000/svg">
<circle cx="10" cy="10" r="10" fill="#215E88"/>
<circle cx="10" cy="90" r="10" fill="#215E88"/>
<circle cx="150" cy="10" r="10" fill="#215E88"/>
<circle cx="150" cy="90" r="10" fill="#215E88"/>
<circle cx="150" cy="50" r="10" fill="#215E88"/>
<circle cx="150" cy="130" r="10" fill="#215E88"/>
<circle cx="10" cy="50" r="10" fill="#215E88"/>
<circle cx="10" cy="130" r="10" fill="#215E88"/>
<circle cx="45" cy="10" r="10" fill="#215E88"/>
<circle cx="45" cy="90" r="10" fill="#215E88"/>
<circle cx="185" cy="10" r="10" fill="#215E88"/>
<circle cx="185" cy="90" r="10" fill="#215E88"/>
<circle cx="185" cy="50" r="10" fill="#215E88"/>
<circle cx="185" cy="130" r="10" fill="#215E88"/>
<circle cx="45" cy="50" r="10" fill="#215E88"/>
<circle cx="45" cy="130" r="10" fill="#215E88"/>
<circle cx="80" cy="10" r="10" fill="#215E88"/>
<circle cx="80" cy="90" r="10" fill="#215E88"/>
<circle cx="220" cy="10" r="10" fill="#215E88"/>
<circle cx="220" cy="90" r="10" fill="#215E88"/>
<circle cx="220" cy="50" r="10" fill="#215E88"/>
<circle cx="220" cy="130" r="10" fill="#215E88"/>
<circle cx="80" cy="50" r="10" fill="#215E88"/>
<circle cx="80" cy="130" r="10" fill="#215E88"/>
<circle cx="115" cy="10" r="10" fill="#215E88"/>
<circle cx="115" cy="90" r="10" fill="#215E88"/>
<circle cx="115" cy="50" r="10" fill="#215E88"/>
<circle cx="115" cy="130" r="10" fill="#215E88"/>
</svg>
