<svg width="98" height="98" viewBox="0 0 98 98" fill="none" xmlns="http://www.w3.org/2000/svg">
<path d="M8.06475 25.366L49 1.73205L89.9352 25.366V72.634L49 96.2679L8.06475 72.634V25.366Z" stroke="#3D9EDF" stroke-width="3"/>
<path d="M53.8519 42.7937C53.7411 41.6765 53.2656 40.8086 52.4254 40.19C51.5852 39.5714 50.445 39.2621 49.0046 39.2621C48.0259 39.2621 47.1996 39.4006 46.5256 39.6776C45.8516 39.9453 45.3345 40.3192 44.9744 40.7994C44.6236 41.2795 44.4482 41.8242 44.4482 42.4336C44.4297 42.9414 44.5359 43.3846 44.7667 43.7631C45.0067 44.1417 45.3345 44.4695 45.75 44.7464C46.1655 45.0142 46.6456 45.2496 47.1903 45.4528C47.7351 45.6467 48.3168 45.8129 48.9354 45.9513L51.4837 46.5607C52.7209 46.8377 53.8565 47.207 54.8906 47.6687C55.9247 48.1303 56.8203 48.6982 57.5774 49.3722C58.3345 50.0462 58.9208 50.8402 59.3363 51.7543C59.761 52.6683 59.978 53.7163 59.9872 54.8981C59.978 56.6339 59.5348 58.1388 58.6577 59.413C57.7898 60.6779 56.5341 61.6612 54.8906 62.3629C53.2564 63.0554 51.2852 63.4016 48.9769 63.4016C46.6871 63.4016 44.6928 63.0508 42.994 62.3491C41.3043 61.6474 39.984 60.6087 39.033 59.233C38.0913 57.848 37.5973 56.1353 37.5511 54.0948H43.354C43.4187 55.0458 43.6911 55.8398 44.1712 56.4769C44.6605 57.1048 45.3114 57.5803 46.1239 57.9034C46.9457 58.2173 47.8736 58.3743 48.9077 58.3743C49.9233 58.3743 50.805 58.2266 51.5529 57.9311C52.31 57.6357 52.8963 57.2248 53.3118 56.6985C53.7273 56.1722 53.935 55.5675 53.935 54.8842C53.935 54.2472 53.7457 53.7116 53.3672 53.2777C52.9979 52.8437 52.4531 52.4744 51.733 52.1697C51.022 51.8651 50.1495 51.5881 49.1154 51.3388L46.027 50.5632C43.6357 49.9815 41.7475 49.0721 40.3626 47.8349C38.9776 46.5977 38.2898 44.9311 38.299 42.8352C38.2898 41.1179 38.7468 39.6175 39.6701 38.3342C40.6026 37.0508 41.8814 36.049 43.5064 35.3288C45.1314 34.6087 46.978 34.2486 49.0462 34.2486C51.1513 34.2486 52.9886 34.6087 54.5582 35.3288C56.1371 36.049 57.3651 37.0508 58.2422 38.3342C59.1193 39.6175 59.5717 41.104 59.5994 42.7937H53.8519Z" fill="#3D9EDF"/>
</svg>
